# xmcd
# 
# Track frame offsets:
#     150
#     15290
#     32020
#     46500
#     63560
#     78685
#     93910
#     109990
#     128280
#     145275
#     162620
#     178520
#     197355
#     214545
# 
# Disc length: 3069
# 
# Revision: 9
# Processed by: cddbd v1.5.2PL0 Copyright (c) Steve Scherf et al.
# Submitted via: BonkEnc v1.0.8
# 
DISCID=ae0bfb0e
DTITLE=Dead Can Dance - Dead Can Dance
DYEAR=1984
DGENRE=Gothic
TTITLE0=The Fatal Impact
TTITLE1=The Trial
TTITLE2=Frontier
TTITLE3=Fortune
TTITLE4=Ocean
TTITLE5=East Of Eden
TTITLE6=Threshold
TTITLE7=A Passage In Time
TTITLE8=Wild In The Woods
TTITLE9=Musica Eternal
TTITLE10=Carnival Of Light
TTITLE11=In Power We Entrust The Love Advocated
TTITLE12=The Arcane
TTITLE13=Flowers Of The Sea
EXTD=
EXTT0=
EXTT1=
EXTT2=
EXTT3=
EXTT4=
EXTT5=
EXTT6=
EXTT7=
EXTT8=
EXTT9=
EXTT10=
EXTT11=
EXTT12=
EXTT13=
PLAYORDER=
